<?xml version="1.0" encoding="utf-8"?>
<!-- Generator: Adobe Illustrator 18.1.0, SVG Export Plug-In . SVG Version: 6.00 Build 0)  -->
<svg version="1.1" id="Capa_1" xmlns="http://www.w3.org/2000/svg" xmlns:xlink="http://www.w3.org/1999/xlink" x="0px" y="0px"
	 viewBox="102 296.8 400 248.2" enable-background="new 102 296.8 400 248.2" xml:space="preserve">
<path d="M119.3,438.2h323.6l-77.2,77.2c-6.8,6.8-6.8,17.7,0,24.5c6.8,6.8,17.7,6.8,24.5,0l106.8-106.8c6.8-6.8,6.8-17.7,0-24.5
	L390.2,301.9c-3.4-3.4-7.8-5.1-12.2-5.1c-4.4,0-8.9,1.7-12.2,5.1c-6.8,6.8-6.8,17.7,0,24.5l77.2,77.2H119.3
	c-9.6,0-17.3,7.8-17.3,17.3S109.8,438.2,119.3,438.2z"/>
</svg>
